<svg width="19" height="19" viewBox="0 0 19 19" fill="none" xmlns="http://www.w3.org/2000/svg">
<path fill-rule="evenodd" clip-rule="evenodd" d="M18.3113 4.87844L14.1216 0.689687C13.8402 0.408309 13.4587 0.250226 13.0608 0.250226C12.6629 0.250226 12.2813 0.408309 12 0.689687L0.439687 12.25C0.157107 12.5303 -0.00127172 12.9123 0 13.3103V17.5C0 18.3284 0.671573 19 1.5 19H17.25C17.6642 19 18 18.6642 18 18.25C18 17.8358 17.6642 17.5 17.25 17.5H7.81125L18.3113 7C18.5926 6.71869 18.7507 6.3371 18.7507 5.93922C18.7507 5.54133 18.5926 5.15975 18.3113 4.87844ZM9.75 5.06031L11.3147 6.625L3.375 14.5647L1.81031 13L9.75 5.06031ZM1.5 17.5V14.8103L4.18969 17.5H1.5ZM6 17.1897L4.43625 15.625L12.375 7.68531L13.9397 9.25L6 17.1897ZM15 8.18969L10.8112 4L13.0613 1.75L17.25 5.93969L15 8.18969Z" fill="white"/>
</svg>
